<svg width="228" height="29" viewBox="0 0 228 29" fill="none" xmlns="http://www.w3.org/2000/svg">
<path d="M69.0408 6.90278L71.8644 6.90005L73.477 18.8335L80.219 6.97932L82.9844 6.97665L85.15 18.8222L91.5717 6.88104L94.5409 6.87817L86.0845 21.9361L83.2026 21.9388L81.0661 10.035L74.2951 21.9474L71.4132 21.9502L69.0408 6.90278Z" fill="#FFFEFA"/>
<path d="M98.8274 22.3022C97.2361 22.3037 95.9743 21.9459 95.0421 21.2288C94.1099 20.4922 93.6432 19.5127 93.642 18.2901C93.6403 16.5435 94.3959 15.2231 95.9087 14.3289C97.4216 13.4154 99.711 12.9086 102.777 12.8086L107.522 12.6876L107.58 12.3673C107.676 11.8821 107.725 11.4745 107.724 11.1446C107.723 10.2519 107.373 9.5924 106.674 9.16613C105.975 8.73986 104.888 8.52744 103.413 8.52886C100.832 8.53135 99.2224 9.26065 98.5833 10.7168L96.0796 10.399C96.5247 9.07889 97.3776 8.08834 98.6384 7.4273C99.9186 6.74684 101.558 6.40564 103.557 6.40371C105.769 6.40158 107.458 6.77838 108.623 7.53411C109.788 8.28983 110.372 9.40514 110.373 10.88C110.373 11.3458 110.306 11.9183 110.171 12.5977L108.288 21.9146L105.697 21.9171L106.16 19.5879C104.978 20.5594 103.804 21.2591 102.64 21.6872C101.496 22.0959 100.225 22.3008 98.8274 22.3022ZM107.116 14.6383L102.75 14.759C100.576 14.8193 98.9854 15.1022 97.9768 15.6078C96.9681 16.1133 96.4643 16.8901 96.4653 17.938C96.4667 19.3741 97.4862 20.0911 99.5239 20.0892C100.494 20.0882 101.464 19.9321 102.434 19.6206C103.404 19.3092 104.277 18.8717 105.053 18.3082C105.538 17.9584 105.945 17.5407 106.274 17.0553C106.623 16.5503 106.846 16.0359 106.942 15.5118L107.116 14.6383Z" fill="#FFFEFA"/>
<path d="M113.045 6.86031L116.073 6.85739L119.17 19.0514L127.222 6.84663L130.424 6.84354L120.133 21.9032L117.222 21.906L113.045 6.86031Z" fill="#FFFEFA"/>
<path d="M137.79 22.3519C135.442 22.3542 133.607 21.7738 132.287 20.6107C130.966 19.4281 130.304 17.818 130.302 15.7804C130.301 14.0726 130.687 12.4906 131.462 11.0343C132.237 9.57811 133.342 8.44176 134.777 7.62531C136.213 6.78944 137.939 6.37053 139.958 6.36859C142.131 6.36649 143.849 6.8791 145.112 7.90643C146.393 8.93374 147.035 10.3304 147.037 12.0964C147.037 12.5815 146.989 13.1347 146.893 13.7558L146.661 15.1241L132.922 15.1374C132.902 15.2539 132.893 15.3703 132.893 15.4868C132.893 15.6032 132.893 15.7099 132.893 15.807C132.895 17.2236 133.332 18.31 134.206 19.066C135.08 19.822 136.342 20.1992 137.992 20.1976C139.292 20.1964 140.388 19.9818 141.28 19.554C142.192 19.1262 142.871 18.4948 143.316 17.6599L145.936 17.6574C145.278 19.1911 144.25 20.3565 142.854 21.1535C141.477 21.9505 139.789 22.35 137.79 22.3519ZM144.331 13.0596C144.408 12.7296 144.446 12.3706 144.446 11.9824C144.445 10.8763 144.027 10.0228 143.192 9.42199C142.376 8.80177 141.26 8.49234 139.843 8.49371C138.194 8.4953 136.807 8.89447 135.682 9.69122C134.557 10.4686 133.792 11.5949 133.385 13.0702L144.331 13.0596Z" fill="#FFFEFA"/>
<path d="M152.686 8.97618L149.746 8.97902L150.18 6.82448L153.12 6.82164L153.381 5.54056C153.69 4.02656 154.388 2.8712 155.474 2.07448C156.56 1.25836 157.956 0.849478 159.664 0.84783C160.732 0.8468 161.702 0.972006 162.576 1.22345L161.879 3.32002C161.277 3.16535 160.617 3.08836 159.899 3.08905C157.706 3.09117 156.446 3.90746 156.117 5.53792L155.857 6.819L160.98 6.81406L160.545 8.9686L155.422 8.97354L152.815 21.8717L150.078 21.8743L152.686 8.97618Z" fill="#FFFEFA"/>
<path d="M168.702 22.3512C166.315 22.3535 164.393 21.7344 162.936 20.4937C161.479 19.2337 160.75 17.5752 160.748 15.5181C160.746 13.7715 161.143 12.2089 161.937 10.8303C162.731 9.43224 163.865 8.33468 165.34 7.53759C166.833 6.74049 168.55 6.341 170.491 6.33912C172.878 6.33682 174.8 6.96568 176.256 8.22569C177.713 9.4663 178.442 11.1151 178.444 13.1722C178.446 14.9188 178.05 16.4911 177.255 17.8892C176.461 19.2678 175.317 20.3557 173.824 21.1528C172.35 21.9499 170.642 22.3493 168.702 22.3512ZM168.874 20.1096C170.912 20.1076 172.532 19.4948 173.734 18.271C174.955 17.0472 175.565 15.4068 175.563 13.3497C175.561 11.8554 175.094 10.6914 174.162 9.85786C173.23 9.00487 171.949 8.57917 170.318 8.58074C168.281 8.58271 166.651 9.19558 165.43 10.4194C164.228 11.6431 163.628 13.2836 163.63 15.3407C163.631 16.835 164.098 18.0086 165.03 18.8616C165.963 19.6952 167.244 20.1112 168.874 20.1096Z" fill="#FFFEFA"/>
<path d="M185.872 22.2182C184.281 22.2197 183.019 21.8619 182.087 21.1448C181.155 20.4082 180.688 19.4287 180.687 18.2061C180.685 16.4595 181.441 15.1391 182.954 14.2449C184.466 13.3314 186.756 12.8246 189.822 12.7246L194.567 12.6036L194.625 12.2833C194.721 11.7981 194.769 11.3905 194.769 11.0606C194.768 10.1679 194.418 9.5084 193.719 9.08213C193.02 8.65586 191.933 8.44344 190.458 8.44487C187.877 8.44736 186.267 9.17665 185.628 10.6328L183.124 10.315C183.57 8.9949 184.422 8.00434 185.683 7.3433C186.963 6.66284 188.603 6.32164 190.602 6.31972C192.814 6.31758 194.503 6.69438 195.668 7.45011C196.833 8.20584 197.416 9.32115 197.418 10.796C197.418 11.2618 197.351 11.8344 197.216 12.5137L195.333 21.8306L192.742 21.8331L193.205 19.5039C192.022 20.4754 190.849 21.1751 189.685 21.6032C188.54 22.0119 187.27 22.2168 185.872 22.2182ZM194.161 14.5543L189.795 14.675C187.621 14.7353 186.03 15.0182 185.022 15.5238C184.013 16.0293 183.509 16.8061 183.51 17.854C183.512 19.2901 184.531 20.0072 186.569 20.0052C187.539 20.0042 188.509 19.8481 189.479 19.5366C190.449 19.2252 191.322 18.7877 192.098 18.2242C192.583 17.8744 192.99 17.4567 193.319 16.9713C193.668 16.4664 193.891 15.9519 193.987 15.4278L194.161 14.5543Z" fill="#FFFEFA"/>
<path d="M203.067 6.77344L205.774 6.77083L205.195 9.56592C206.125 8.51708 207.153 7.71072 208.278 7.14684C209.403 6.58297 210.558 6.30046 211.741 6.29932C213.042 6.29806 214.09 6.60755 214.886 7.22779C215.702 7.84801 216.188 8.72084 216.344 9.84626C217.313 8.70034 218.399 7.826 219.602 7.22324C220.804 6.60107 222.046 6.28937 223.327 6.28814C224.783 6.28673 225.918 6.67377 226.734 7.44924C227.569 8.20529 227.987 9.25283 227.989 10.5919C227.989 11.2905 227.922 11.9892 227.787 12.688L225.933 21.8011L223.196 21.8038L224.993 12.8944C225.108 12.2539 225.166 11.7396 225.166 11.3515C225.165 10.4199 224.941 9.73123 224.494 9.28531C224.048 8.8394 223.358 8.61689 222.427 8.61778C221.146 8.61902 219.875 9.10541 218.615 10.0769C217.917 10.621 217.326 11.2523 216.841 11.9708C216.376 12.6699 216.066 13.3882 215.912 14.1258L214.347 21.8123L211.611 21.8149L213.407 12.9056C213.523 12.2651 213.581 11.7508 213.58 11.3626C213.579 10.4311 213.355 9.74241 212.909 9.29649C212.462 8.85058 211.773 8.62807 210.841 8.62897C209.599 8.63016 208.377 9.07769 207.175 9.97155C206.418 10.5351 205.788 11.1955 205.284 11.9528C204.781 12.6908 204.442 13.4674 204.268 14.2826L202.761 21.8235L200.025 21.8261L203.067 6.77344Z" fill="#FFFEFA"/>
<path d="M33.2596 11.8245C33.2596 11.8245 33.2916 11.8245 33.3554 11.7606C33.3235 11.7926 33.2916 11.8245 33.2596 11.8245Z" fill="#FFFEFA"/>
<path d="M26.4706 6.17712C25.4237 8.04886 25.0113 10.3013 25.9313 12.2999C26.5024 13.5372 27.4858 14.5207 28.6596 15.1551C28.0886 15.1551 27.3589 15.06 26.8196 14.8696C25.6141 14.4255 24.6941 13.6006 23.9961 12.4903C23.3934 11.5068 23.0444 10.2696 23.0127 9.09577C22.9809 8.46128 23.0444 8.04886 23.203 7.4461C23.2982 7.12885 23.2982 7.0654 23.4568 6.77988C23.6154 6.46264 23.6472 6.39919 23.8375 6.17712C24.1548 5.7647 24.5989 5.41573 25.1065 5.19366C25.8361 4.87642 26.6293 4.78124 27.3906 4.74952C27.0734 5.19366 26.7562 5.66953 26.4706 6.17712ZM32.181 13.442C32.181 13.5055 32.181 13.4737 32.181 13.442V13.442ZM60.9869 12.4268C60.4475 11.1261 59.6227 9.85716 58.7662 8.71508C57.973 7.69989 57.0848 6.77988 56.1013 5.95505C54.1027 4.3371 51.755 3.25847 49.2488 2.62398C48.424 2.43363 47.5991 2.27501 46.7743 2.14811C46.3619 1.92604 45.9495 1.73569 45.537 1.57707C43.697 0.815683 41.7301 0.434989 39.7315 0.308091C37.828 0.181194 35.8611 0.212918 33.9893 0.625336C31.61 1.16465 29.5162 2.37018 27.93 4.14675C27.8982 4.0833 27.8348 4.01985 27.7396 4.01985C26.2803 3.76606 24.6941 4.11503 23.552 5.13021C22.4734 6.08194 21.9023 7.4461 21.7754 8.84197C21.4582 11.6337 22.8858 14.6793 25.4555 15.9483C26.2168 16.3289 27.0734 16.5193 27.93 16.551C26.9148 16.7731 25.8996 16.7731 24.8527 16.551C23.552 16.2338 22.0609 15.4724 21.4899 14.1717C21.1409 13.3469 21.2678 12.4586 21.6168 11.6655C21.8389 11.1579 21.1409 11.2213 20.9823 11.5703C20.2209 13.1565 20.2844 14.9331 21.5851 16.2338C22.8223 17.471 24.7258 17.9152 26.4389 17.8834C27.4224 17.8517 28.4693 17.6614 29.2941 17.0903C29.4845 16.9634 29.7065 16.7414 29.7065 16.4558C30.2459 16.3607 30.7852 16.2021 31.2293 15.9165C31.4831 15.7579 31.7369 15.4724 31.7052 15.1551C31.7052 15.1234 31.7052 15.0917 31.7052 15.06C31.8638 14.9013 31.959 14.711 32.0224 14.4572C31.9907 14.6476 32.0541 14.3938 32.0541 14.362C32.0859 14.2669 32.1176 14.14 32.1493 14.0131C32.181 13.8862 32.2128 13.7275 32.2128 13.6006C32.2128 13.5372 32.2445 13.4737 32.2445 13.4103C32.2445 13.3786 32.2445 13.3786 32.2762 13.3468C32.3079 13.22 32.3714 13.0931 32.4031 12.9344C32.4348 12.8393 32.6252 12.5537 32.4666 12.7758C32.53 12.6806 32.5935 12.5537 32.6569 12.4586C32.7204 12.3634 32.8155 12.2682 32.879 12.173C32.9107 12.1413 32.9742 12.0779 33.0059 12.0461C33.1011 11.951 33.1645 11.8875 33.2597 11.8241C33.2597 11.8241 33.2914 11.8241 33.2914 11.7923C33.2914 11.7923 33.3231 11.7606 33.3548 11.7289H33.3866L33.4183 11.6972L33.3866 11.7289C33.6086 11.602 33.799 11.5068 34.0211 11.4117C34.0528 11.4117 34.0845 11.3799 34.0845 11.3799C34.1162 11.3799 34.1162 11.3799 34.148 11.3482C34.2749 11.3165 34.37 11.2848 34.4969 11.253C34.6238 11.2213 34.719 11.1896 34.8459 11.1896C34.9093 11.1896 35.0045 11.1579 35.068 11.1579C35.3218 11.1579 35.5438 11.1261 35.7976 11.1579C35.9245 11.1579 36.0514 11.1896 36.1783 11.1896C36.1783 11.1896 36.1783 11.1896 36.2101 11.1896C36.2735 11.1896 36.3687 11.2213 36.4321 11.2213C36.6859 11.2848 36.908 11.3482 37.1618 11.4434C37.1935 11.4751 37.4156 11.5386 37.4156 11.5386C37.5108 11.602 37.6377 11.6337 37.7328 11.6972C37.9549 11.8241 38.1452 11.951 38.3673 12.1096C38.399 12.1413 38.5894 12.2999 38.399 12.1413C38.4308 12.173 38.4625 12.2048 38.5259 12.2365C38.6211 12.3317 38.748 12.4586 38.8432 12.5537C38.9384 12.6489 39.0018 12.7441 39.097 12.871C39.097 12.871 39.1287 12.9344 39.1604 12.9662C39.1922 12.9979 39.2239 13.0613 39.2239 13.0613C39.3825 13.3151 39.5094 13.6006 39.6046 13.8862C39.6046 13.8862 39.6363 13.9496 39.6363 14.0131C39.6363 14.0765 39.668 14.14 39.668 14.14C39.6997 14.2986 39.7315 14.4255 39.7632 14.5841C39.8266 14.9648 39.8584 15.3455 39.8584 15.7262C39.8584 16.3289 39.7949 16.8683 39.6363 17.4076C37.8914 18.7717 35.9563 19.66 33.799 20.1042C31.5466 20.58 29.2941 20.6752 27.01 20.7069C21.5533 20.7704 16.1285 20.4214 10.6719 20.2945C7.40423 20.1993 4.07316 20.1676 0.805543 20.5483C0.202778 20.6118 0.234502 21.6269 0.837267 21.6269C3.78764 21.5635 6.73802 21.5318 9.68839 21.6269C12.6388 21.7538 15.5891 21.9125 18.5712 22.0394C21.2044 22.1345 23.8375 22.198 26.4706 22.1663C27.4541 22.1663 28.4693 22.1345 29.4845 22.0711C24.8844 23.0545 20.1892 23.5621 15.494 23.9745C13.9077 24.1332 12.2898 24.2601 10.7036 24.387C10.2594 24.4187 9.94219 25.2118 10.545 25.2118C14.4471 25.2118 18.3175 24.9897 22.1878 24.5456C25.0113 24.2283 27.8348 23.8159 30.6265 23.1814C33.0693 22.6421 35.5438 21.9442 37.7646 20.7704C37.7963 20.7704 37.7963 20.7387 37.828 20.7387C37.5108 21.0876 37.1618 21.4366 36.8128 21.7538C34.719 23.5621 32.1493 24.6725 29.5479 25.6242C27.9934 26.1953 26.312 26.7029 24.6623 27.0835C23.9644 27.2422 23.1396 27.4008 22.5051 27.4642C22.1878 27.496 21.8389 27.5277 21.5216 27.496C21.2996 27.496 21.0775 27.4642 20.8554 27.5594C20.7602 27.6229 20.6651 27.6863 20.5382 27.718C20.2526 27.8449 20.1257 28.2573 20.3478 28.4794C20.6016 28.7649 20.8237 28.9236 21.2044 28.9553C21.5216 28.987 21.8389 28.987 22.1561 28.987C22.9175 28.9553 23.6789 28.8601 24.4403 28.7332C26.1217 28.4477 27.7713 27.9718 29.3893 27.4642C32.4031 26.4808 35.3535 25.307 37.828 23.2766C39.2556 22.1028 40.4929 20.6118 41.1908 18.8986C41.857 17.2807 42.0791 15.282 41.6349 13.5689C40.937 10.9041 38.5259 9.19094 35.7976 9.12749C34.9093 9.09577 34.0211 9.25439 33.228 9.60336C33.2914 9.53991 33.3866 9.47646 33.45 9.41301C33.4817 9.38129 33.5135 9.38129 33.5135 9.34957C33.5452 9.34957 33.6404 9.25439 33.6404 9.25439C33.7355 9.19094 33.8307 9.12749 33.9259 9.06405C34.1797 8.90542 34.4335 8.77852 34.6873 8.65163C34.6873 8.65163 34.7824 8.6199 34.8142 8.58818C34.8776 8.55645 34.9728 8.52473 34.9411 8.52473C35.068 8.46128 35.1949 8.42956 35.3218 8.36611C35.6073 8.27093 35.8928 8.17576 36.1783 8.08059C36.7176 7.92196 37.1935 7.85852 37.7963 7.76334C38.9066 7.63644 39.9535 7.66817 41.0322 7.85851C43.1577 8.23921 44.8708 9.47646 45.9812 11.3482C47.1867 13.4103 47.3771 15.8848 46.806 18.169C45.9812 21.3731 43.697 23.9428 40.937 25.6559C40.6198 25.878 40.7149 26.3856 41.1273 26.1635C43.9191 24.5773 46.2984 22.1663 47.4722 19.1524C48.424 16.6779 48.5826 13.8544 47.5674 11.3799C46.6474 9.06405 44.8074 7.28747 42.428 6.58954C40.0487 5.8916 37.3204 6.08195 35.0045 6.97023C33.5769 7.50955 32.3079 8.36611 31.3245 9.50819C30.4045 10.5868 29.6431 12.1096 29.8334 13.5689C29.8652 13.7593 29.9286 13.8544 30.0238 13.9496C30.0238 14.0765 30.0238 14.2034 30.0555 14.3303C29.0086 13.791 28.1203 12.9344 27.6127 11.8875C26.9148 10.3965 26.9465 8.77852 27.6762 7.3192C28.9451 4.84469 30.9755 3.13157 33.6404 2.40191C35.2583 1.95776 36.9397 1.86259 38.6211 1.92604C40.4294 1.98949 42.206 2.24328 43.9191 2.81433C46.9964 3.86123 49.8199 5.98677 51.5013 8.77852C52.4213 10.2696 52.9923 11.951 53.1509 13.6958C53.2144 14.5524 53.1826 15.4089 53.0557 16.2338C52.8971 17.1538 52.5799 18.0421 52.2944 18.9621C52.1992 19.3428 52.2309 19.7235 52.6433 19.8821C52.9923 20.0407 53.4682 19.8821 53.6902 19.5331C54.7054 17.8834 55.0227 15.8214 54.9592 13.8862C54.8958 12.1413 54.4199 10.4282 53.6585 8.8737C52.7068 7.00195 51.3744 5.38401 49.7564 4.05158C50.3909 4.27365 50.9937 4.52745 51.5964 4.81297C53.7854 5.85987 55.7206 7.38265 57.2751 9.28612C58.2586 10.4916 58.9565 11.8241 59.7179 13.1565C60.0669 13.8544 61.2407 13.0613 60.9869 12.4268Z" fill="#FFFEFA"/>
</svg>
