<?xml version="1.0" encoding="utf-8"?>
<!-- Generator: Adobe Illustrator 27.0.1, SVG Export Plug-In . SVG Version: 6.00 Build 0)  -->
<svg version="1.1" id="Layer_1" xmlns="http://www.w3.org/2000/svg" xmlns:xlink="http://www.w3.org/1999/xlink" x="0px" y="0px"
	 viewBox="0 0 907.2 242.8" style="enable-background:new 0 0 907.2 242.8;" xml:space="preserve">
<style type="text/css">
	.st0{fill:#000732;}
	.st1{font-family:'AktivGroteskEx-Italic';}
	.st2{font-size:91.7579px;}
	.st3{letter-spacing:5;}
	.st4{letter-spacing:4;}
	.st5{letter-spacing:7;}
</style>
<text transform="matrix(1 -9.650000e-04 9.650000e-04 1 347.012 154.2811)"><tspan x="0" y="0" class="st0 st1 st2 st3">w</tspan><tspan x="88.5" y="0" class="st0 st1 st2 st4">a</tspan><tspan x="153.5" y="0" class="st0 st1 st2 st3">ve</tspan><tspan x="283.9" y="0" class="st0 st1 st2 st3">f</tspan><tspan x="326.5" y="0" class="st0 st1 st2 st5">oa</tspan><tspan x="467" y="0" class="st0 st1 st2">m</tspan></text>
<path class="st0" d="M103.8,121.2c0,0,0.1,0,0.3-0.2c0,0,0,0,0,0C104,121.1,103.9,121.2,103.8,121.2z"/>
<path class="st0" d="M82.4,103.4c-3.3,5.9-4.6,13-1.7,19.3c1.8,3.9,4.9,7,8.6,9c-1.8,0-4.1-0.3-5.8-0.9c-3.8-1.4-6.7-4-8.9-7.5
	c-1.9-3.1-3-7-3.1-10.7c-0.1-2,0.1-3.3,0.6-5.2c0.3-1,0.3-1.2,0.8-2.1c0.5-1,0.6-1.2,1.2-1.9c1-1.3,2.4-2.4,4-3.1
	c2.3-1,4.8-1.3,7.2-1.4C84.3,100.3,83.3,101.8,82.4,103.4z M100.4,126.3C100.4,126.5,100.4,126.4,100.4,126.3z M191.2,123.1
	c-1.7-4.1-4.3-8.1-7-11.7c-2.5-3.2-5.3-6.1-8.4-8.7c-6.3-5.1-13.7-8.5-21.6-10.5c-2.6-0.6-5.2-1.1-7.8-1.5c-1.3-0.7-2.6-1.3-3.9-1.8
	c-5.8-2.4-12-3.6-18.3-4c-6-0.4-12.2-0.3-18.1,1C98.6,87.6,92,91.4,87,97c-0.1-0.2-0.3-0.4-0.6-0.4c-4.6-0.8-9.6,0.3-13.2,3.5
	c-3.4,3-5.2,7.3-5.6,11.7c-1,8.8,3.5,18.4,11.6,22.4c2.4,1.2,5.1,1.8,7.8,1.9c-3.2,0.7-6.4,0.7-9.7,0c-4.1-1-8.8-3.4-10.6-7.5
	c-1.1-2.6-0.7-5.4,0.4-7.9c0.7-1.6-1.5-1.4-2-0.3c-2.4,5-2.2,10.6,1.9,14.7c3.9,3.9,9.9,5.3,15.3,5.2c3.1-0.1,6.4-0.7,9-2.5
	c0.6-0.4,1.3-1.1,1.3-2c1.7-0.3,3.4-0.8,4.8-1.7c0.8-0.5,1.6-1.4,1.5-2.4c0-0.1,0-0.2,0-0.3c0.5-0.5,0.8-1.1,1-1.9
	c-0.1,0.6,0.1-0.2,0.1-0.3c0.1-0.3,0.2-0.7,0.3-1.1c0.1-0.4,0.2-0.9,0.2-1.3c0-0.2,0.1-0.4,0.1-0.6c0-0.1,0-0.1,0.1-0.2
	c0.1-0.4,0.3-0.8,0.4-1.3c0.1-0.3,0.7-1.2,0.2-0.5c0.2-0.3,0.4-0.7,0.6-1c0.2-0.3,0.5-0.6,0.7-0.9c0,0,0,0,0,0
	c0.1-0.1,0.3-0.3,0.4-0.4c0.3-0.3,0.5-0.5,0.8-0.7c0,0,0.1,0,0.1-0.1c0,0,0.1-0.1,0.2-0.2c0,0,0.1,0,0.1,0c0,0,0.1-0.1,0.1-0.1
	c0,0-0.1,0.1-0.1,0.1c0.7-0.4,1.3-0.7,2-1c0.1,0,0.2-0.1,0.2-0.1c0.1,0,0.1,0,0.2-0.1c0.4-0.1,0.7-0.2,1.1-0.3
	c0.4-0.1,0.7-0.2,1.1-0.2c0.2,0,0.5-0.1,0.7-0.1c0,0,0,0,0,0c0,0,0,0,0,0c0.8,0,1.5-0.1,2.3,0c0.4,0,0.8,0.1,1.2,0.1c0,0,0,0,0.1,0
	c0,0,0,0,0,0c0.2,0,0.5,0.1,0.7,0.1c0.8,0.2,1.5,0.4,2.3,0.7c0.1,0.1,0.8,0.3,0.8,0.3c0.3,0.2,0.7,0.3,1,0.5c0.7,0.4,1.3,0.8,2,1.3
	c0.1,0.1,0.7,0.6,0.1,0.1c0.1,0.1,0.2,0.2,0.4,0.3c0.3,0.3,0.7,0.7,1,1c0.3,0.3,0.5,0.6,0.8,1c0,0,0.1,0.2,0.2,0.3
	c0.1,0.1,0.2,0.3,0.2,0.3c0.5,0.8,0.9,1.7,1.2,2.6c0,0,0.1,0.2,0.1,0.4c0,0.2,0.1,0.4,0.1,0.4c0.1,0.5,0.2,0.9,0.3,1.4
	c0.2,1.2,0.3,2.4,0.3,3.6c0,1.9-0.2,3.6-0.7,5.3c-5.5,4.3-11.6,7.1-18.4,8.5c-7.1,1.5-14.2,1.8-21.4,1.9
	c-17.2,0.2-34.3-0.9-51.5-1.3c-10.3-0.3-20.8-0.4-31.1,0.8c-1.9,0.2-1.8,3.4,0.1,3.4c9.3-0.2,18.6-0.3,27.9,0
	c9.3,0.4,18.6,0.9,28,1.3c8.3,0.3,16.6,0.5,24.9,0.4c3.1,0,6.3-0.1,9.5-0.3c-14.5,3.1-29.3,4.7-44.1,6c-5,0.5-10.1,0.9-15.1,1.3
	c-1.4,0.1-2.4,2.6-0.5,2.6c12.3,0,24.5-0.7,36.7-2.1c8.9-1,17.8-2.3,26.6-4.3c7.7-1.7,15.5-3.9,22.5-7.6c0.1,0,0.1-0.1,0.2-0.1
	c-1,1.1-2.1,2.2-3.2,3.2c-6.6,5.7-14.7,9.2-22.9,12.2c-4.9,1.8-10.2,3.4-15.4,4.6c-2.2,0.5-4.8,1-6.8,1.2c-1,0.1-2.1,0.2-3.1,0.1
	c-0.7,0-1.4-0.1-2.1,0.2c-0.3,0.2-0.6,0.4-1,0.5c-0.9,0.4-1.3,1.7-0.6,2.4c0.8,0.9,1.5,1.4,2.7,1.5c1,0.1,2,0.1,3,0.1
	c2.4-0.1,4.8-0.4,7.2-0.8c5.3-0.9,10.5-2.4,15.6-4c9.5-3.1,18.8-6.8,26.6-13.2c4.5-3.7,8.4-8.4,10.6-13.8c2.1-5.1,2.8-11.4,1.4-16.8
	c-2.2-8.4-9.8-13.8-18.4-14c-2.8-0.1-5.6,0.4-8.1,1.5c0.2-0.2,0.5-0.4,0.7-0.6c0.1-0.1,0.2-0.1,0.2-0.2c0.1,0,0.4-0.3,0.4-0.3
	c0.3-0.2,0.6-0.4,0.9-0.6c0.8-0.5,1.6-0.9,2.4-1.3c0,0,0.3-0.1,0.4-0.2c0.2-0.1,0.5-0.2,0.4-0.2c0.4-0.2,0.8-0.3,1.2-0.5
	c0.9-0.3,1.8-0.6,2.7-0.9c1.7-0.5,3.2-0.7,5.1-1c3.5-0.4,6.8-0.3,10.2,0.3c6.7,1.2,12.1,5.1,15.6,11c3.8,6.5,4.4,14.3,2.6,21.5
	c-2.6,10.1-9.8,18.2-18.5,23.6c-1,0.7-0.7,2.3,0.6,1.6c8.8-5,16.3-12.6,20-22.1c3-7.8,3.5-16.7,0.3-24.5
	c-2.9-7.3-8.7-12.9-16.2-15.1c-7.5-2.2-16.1-1.6-23.4,1.2c-4.5,1.7-8.5,4.4-11.6,8c-2.9,3.4-5.3,8.2-4.7,12.8
	c0.1,0.6,0.3,0.9,0.6,1.2c0,0.4,0,0.8,0.1,1.2c-3.3-1.7-6.1-4.4-7.7-7.7c-2.2-4.7-2.1-9.8,0.2-14.4c4-7.8,10.4-13.2,18.8-15.5
	c5.1-1.4,10.4-1.7,15.7-1.5c5.7,0.2,11.3,1,16.7,2.8c9.7,3.3,18.6,10,23.9,18.8c2.9,4.7,4.7,10,5.2,15.5c0.2,2.7,0.1,5.4-0.3,8
	c-0.5,2.9-1.5,5.7-2.4,8.6c-0.3,1.2-0.2,2.4,1.1,2.9c1.1,0.5,2.6,0,3.3-1.1c3.2-5.2,4.2-11.7,4-17.8c-0.2-5.5-1.7-10.9-4.1-15.8
	c-3-5.9-7.2-11-12.3-15.2c2,0.7,3.9,1.5,5.8,2.4c6.9,3.3,13,8.1,17.9,14.1c3.1,3.8,5.3,8,7.7,12.2
	C188.3,127.6,192,125.1,191.2,123.1z"/>
<rect x="264.3" class="st0" width="3.5" height="242.8"/>
</svg>
